<?xml version="1.0" encoding="utf-8"?>
<!-- Generator: Adobe Illustrator 25.4.1, SVG Export Plug-In . SVG Version: 6.00 Build 0)  -->
<svg version="1.1" id="Layer_1" xmlns="http://www.w3.org/2000/svg" xmlns:xlink="http://www.w3.org/1999/xlink" x="0px" y="0px"
	 viewBox="0 0 1366 768" style="enable-background:new 0 0 1366 768;" xml:space="preserve">
<style type="text/css">
	.st0{fill:#FF6600;}
	.st1{fill:#191A5B;}
	.st2{fill-rule:evenodd;clip-rule:evenodd;fill:#191A5B;}
</style>
<path class="st0" d="M715.5,366.6c-1.5,4.7-2.3,9.6-2.3,14.8h5.6c-0.1-5.1,0.6-10.1,1.9-14.8H715.5z M723.1,351.9
	c-2.3,3.1-4.3,6.4-5.8,9.9h5.1c1.4-3.5,3.3-6.8,5.5-9.9H723.1z M739.5,337.2c-4.6,2.9-8.8,6.2-12.3,9.9h4.5c3.3-3.7,7.2-7,11.6-9.9
	H739.5z M759.5,328.8c-5.6,1.5-10.9,3.5-15.7,6h3.5c4.3-2.4,8.9-4.4,13.9-6H759.5z"/>
<path class="st1" d="M805.3,429.7l2.5,3.8v2.9h1.4v-2.9l2.5-3.8h-1.5l-1.6,2.7l-1.6-2.7H805.3z M798.1,429.7v1.1h2.2v5.5h1.4v-5.5
	h2.2v-1.1H798.1z M796.5,432.5h-3.8c0.1-0.4,0.1-0.7,0.2-0.9c0.1-0.2,0.2-0.4,0.4-0.5c0.1-0.1,0.3-0.2,0.5-0.2c0.2,0,0.3,0,0.5,0
	h2.3v-1.1h-2.7c-0.9,0-1.6,0.3-2.1,0.9c-0.5,0.6-0.7,1.4-0.7,2.5c0,1.1,0.2,1.9,0.7,2.5c0.5,0.6,1.2,0.9,2.1,0.9h2.7v-1.1h-2.3
	c-0.5,0-0.9-0.1-1.1-0.4c-0.2-0.3-0.4-0.7-0.5-1.3h3.8V432.5z M789.6,429.7h-2.4c-0.5,0-1,0.1-1.4,0.2c-0.4,0.2-0.7,0.4-0.9,0.7
	c-0.2,0.3-0.4,0.6-0.5,1c-0.1,0.4-0.1,0.8-0.1,1.3v3.5h1.4v-2.8h3.7v-1.1h-3.7c0-0.3,0.1-0.6,0.2-0.9c0.1-0.2,0.2-0.4,0.4-0.5
	c0.2-0.1,0.3-0.2,0.6-0.2c0.2,0,0.4-0.1,0.6-0.1h2.1V429.7z M779.3,431.3l1,2.4h-1.9L779.3,431.3z M775.8,436.4h1.5l0.7-1.6h2.7
	l0.7,1.6h1.5l-2.8-6.7h-1.4L775.8,436.4z M774.3,429.7H770c-0.2,0-0.4,0-0.6,0.1c-0.2,0.1-0.4,0.2-0.6,0.3c-0.2,0.1-0.4,0.3-0.5,0.6
	c-0.1,0.2-0.2,0.6-0.2,1c0,0.4,0.1,0.7,0.2,1c0.1,0.3,0.3,0.5,0.5,0.6c0.2,0.1,0.4,0.2,0.6,0.3c0.2,0.1,0.4,0.1,0.6,0.1h2.1
	c0.2,0,0.4,0.1,0.6,0.2c0.2,0.2,0.3,0.4,0.3,0.6c0,0.1,0,0.2-0.1,0.3c0,0.1-0.1,0.2-0.2,0.3c-0.1,0.1-0.2,0.1-0.3,0.2
	c-0.1,0-0.2,0.1-0.3,0.1h-3.7v1.1h4.3c0.2,0,0.4,0,0.6-0.1c0.2-0.1,0.4-0.2,0.6-0.3c0.2-0.1,0.4-0.3,0.5-0.6c0.1-0.3,0.2-0.6,0.2-1
	c0-0.4-0.1-0.7-0.2-1c-0.1-0.3-0.3-0.5-0.5-0.6c-0.2-0.1-0.4-0.3-0.6-0.3c-0.2-0.1-0.4-0.1-0.6-0.1h-2.1c-0.1,0-0.2,0-0.3,0
	c-0.1,0-0.2-0.1-0.3-0.1c-0.1-0.1-0.1-0.1-0.2-0.2c0-0.1-0.1-0.2-0.1-0.4c0-0.3,0.1-0.5,0.3-0.6c0.2-0.1,0.4-0.2,0.6-0.2h3.6V429.7z
	 M757.2,429.7l2.5,3.8v2.9h1.4v-2.9l2.5-3.8H762l-1.6,2.7l-1.6-2.7H757.2z M754,431.3l1,2.4h-1.9L754,431.3z M750.5,436.4h1.5
	l0.7-1.6h2.7l0.7,1.6h1.5l-2.8-6.7h-1.4L750.5,436.4z M740.8,429.7l1.7,6.7h1.7l1.4-5h0l1.4,5h1.7l1.7-6.7h-1.5l-1,4.9h0l-1.4-4.9
	h-1.7l-1.4,4.9h0l-1-4.9H740.8z M733.7,436.4h1.4v-2.8h2.7v2.8h1.4v-6.7h-1.4v2.8h-2.7v-2.8h-1.4V436.4z M728.5,436.4h3.5v-3.9h-3.3
	v1.1h1.9v1.6h-1.7c-0.6,0-1-0.2-1.2-0.6c-0.3-0.4-0.4-0.9-0.4-1.6c0-0.7,0.1-1.3,0.4-1.6c0.3-0.4,0.7-0.6,1.2-0.6h3.1v-1.1h-3.5
	c-0.9,0-1.6,0.3-2.1,0.9c-0.5,0.6-0.7,1.4-0.7,2.5c0,1.1,0.2,1.9,0.7,2.5C726.9,436.1,727.6,436.4,728.5,436.4z M724.1,436.4v-6.7
	h-1.4v6.7H724.1z M715.4,436.4h1.4v-2.8h2.7v2.8h1.4v-6.7h-1.4v2.8h-2.7v-2.8h-1.4V436.4z M707.1,436.4h3.5v-3.9h-3.3v1.1h1.9v1.6
	h-1.7c-0.6,0-1-0.2-1.2-0.6c-0.3-0.4-0.4-0.9-0.4-1.6c0-0.7,0.1-1.3,0.4-1.6c0.3-0.4,0.7-0.6,1.2-0.6h3.1v-1.1h-3.5
	c-0.9,0-1.6,0.3-2.1,0.9c-0.5,0.6-0.7,1.4-0.7,2.5c0,1.1,0.2,1.9,0.7,2.5C705.6,436.1,706.2,436.4,707.1,436.4z M698.2,436.4v-4.9h0
	l2.7,4.9h1.8v-6.7h-1.4v4.9h0l-2.7-4.9h-1.8v6.7H698.2z M695,436.4v-6.7h-1.4v6.7H695z M684.8,429.7l2.8,6.7h1.5l3-6.7h-1.6l-2,5.2
	h0l-2-5.2H684.8z M680.6,430.7c0.4,0,0.7,0.1,1,0.2c0.2,0.1,0.4,0.3,0.6,0.5c0.1,0.2,0.2,0.5,0.2,0.7c0,0.3,0.1,0.6,0.1,0.9
	c0,0.3,0,0.6-0.1,0.9c0,0.3-0.1,0.5-0.2,0.7c-0.1,0.2-0.3,0.4-0.6,0.5c-0.2,0.1-0.6,0.2-1,0.2c-0.4,0-0.8-0.1-1-0.2
	c-0.2-0.1-0.4-0.3-0.6-0.5c-0.1-0.2-0.2-0.5-0.2-0.7c0-0.3-0.1-0.6-0.1-0.9c0-0.3,0-0.6,0.1-0.9c0-0.3,0.1-0.5,0.2-0.7
	c0.1-0.2,0.3-0.4,0.6-0.5C679.8,430.8,680.2,430.7,680.6,430.7z M677.2,433c0,0.5,0.1,0.9,0.2,1.3c0.1,0.4,0.3,0.8,0.5,1.1
	c0.3,0.3,0.6,0.6,1,0.7c0.4,0.2,1,0.3,1.6,0.3c0.7,0,1.2-0.1,1.6-0.3c0.4-0.2,0.8-0.4,1-0.7c0.3-0.3,0.4-0.7,0.5-1.1
	c0.1-0.4,0.2-0.9,0.2-1.3c0-0.5-0.1-0.9-0.2-1.3c-0.1-0.4-0.3-0.8-0.5-1.1c-0.3-0.3-0.6-0.6-1-0.7c-0.4-0.2-1-0.3-1.6-0.3
	c-0.7,0-1.2,0.1-1.6,0.3s-0.8,0.4-1,0.7c-0.3,0.3-0.4,0.7-0.5,1.1C677.3,432.1,677.2,432.6,677.2,433z M672.8,433.8l1.4,2.6h1.7
	l-1.4-2.7c0.1,0,0.2-0.1,0.3-0.1c0.1-0.1,0.3-0.2,0.4-0.3c0.1-0.1,0.3-0.3,0.4-0.6c0.1-0.2,0.2-0.6,0.2-0.9c0-0.4,0-0.7-0.1-0.9
	c-0.1-0.3-0.2-0.5-0.4-0.6c-0.2-0.2-0.4-0.3-0.6-0.4c-0.2-0.1-0.5-0.1-0.8-0.1h-3.8v6.7h1.4v-2.6H672.8z M671.3,430.8h1.6
	c0.1,0,0.3,0,0.4,0c0.1,0,0.2,0.1,0.3,0.2c0.1,0.1,0.2,0.2,0.2,0.3c0.1,0.1,0.1,0.3,0.1,0.4c0,0.2,0,0.3-0.1,0.5
	c-0.1,0.1-0.1,0.2-0.2,0.3c-0.1,0.1-0.2,0.1-0.3,0.2c-0.1,0-0.3,0-0.4,0h-1.6V430.8z M663.7,430.8h1.9c0.3,0,0.5,0.1,0.7,0.2
	c0.2,0.2,0.3,0.4,0.3,0.8c0,0.4-0.1,0.6-0.3,0.8c-0.2,0.2-0.4,0.2-0.7,0.2h-1.9V430.8z M663.7,434h2.5c0.3,0,0.6,0,0.8-0.1
	c0.2-0.1,0.5-0.2,0.6-0.4c0.2-0.2,0.3-0.4,0.4-0.7c0.1-0.3,0.1-0.6,0.1-0.9c0-0.4,0-0.7-0.1-0.9c-0.1-0.3-0.2-0.5-0.4-0.7
	c-0.2-0.2-0.4-0.3-0.6-0.4c-0.2-0.1-0.5-0.1-0.8-0.1h-3.9v6.7h1.4V434z M654.3,436.4v-5h0l1.7,5h1.4l1.7-5h0v5h1.4v-6.7h-2.1
	l-1.7,5.2l-1.7-5.2h-2.1v6.7H654.3z M651.1,436.4v-6.7h-1.4v6.7H651.1z M638.7,436.4h3.5c0.9,0,1.6-0.3,2-0.9
	c0.5-0.6,0.7-1.4,0.7-2.5c0-1.1-0.2-1.9-0.7-2.5c-0.5-0.6-1.1-0.9-2-0.9h-3.5V436.4z M640.1,430.8h1.7c0.6,0,1,0.2,1.2,0.6
	c0.3,0.4,0.4,0.9,0.4,1.6c0,0.7-0.1,1.3-0.4,1.6c-0.3,0.4-0.7,0.6-1.2,0.6h-1.7V430.8z M632.4,436.4v-4.9h0l2.7,4.9h1.8v-6.7h-1.4
	v4.9h0l-2.7-4.9H631v6.7H632.4z M626,431.3l1,2.4H625L626,431.3z M622.4,436.4h1.5l0.7-1.6h2.7l0.7,1.6h1.5l-2.8-6.7h-1.4
	L622.4,436.4z M614.4,436.4h3.5v-3.9h-3.3v1.1h1.9v1.6h-1.7c-0.6,0-1-0.2-1.2-0.6c-0.3-0.4-0.4-0.9-0.4-1.6c0-0.7,0.1-1.3,0.4-1.6
	c0.3-0.4,0.7-0.6,1.2-0.6h3.1v-1.1h-3.5c-0.9,0-1.6,0.3-2.1,0.9c-0.5,0.6-0.7,1.4-0.7,2.5c0,1.1,0.2,1.9,0.7,2.5
	C612.8,436.1,613.5,436.4,614.4,436.4z M605.5,436.4v-4.9h0l2.7,4.9h1.8v-6.7h-1.4v4.9h0l-2.7-4.9h-1.8v6.7H605.5z M602.3,436.4
	v-6.7h-1.4v6.7H602.3z M599.1,429.7h-2.8c-0.9,0-1.6,0.3-2.1,0.9c-0.5,0.6-0.7,1.4-0.7,2.5c0,1.1,0.2,1.9,0.7,2.5
	c0.5,0.6,1.2,0.9,2.1,0.9h2.8v-1.1h-2.4c-0.6,0-1-0.2-1.2-0.6c-0.3-0.4-0.4-0.9-0.4-1.6c0-0.7,0.1-1.3,0.4-1.6
	c0.3-0.4,0.7-0.6,1.2-0.6h2.4V429.7z M587.4,436.4v-4.9h0l2.7,4.9h1.8v-6.7h-1.4v4.9h0l-2.7-4.9h-1.8v6.7H587.4z M580.9,431.3l1,2.4
	H580L580.9,431.3z M577.4,436.4h1.5l0.7-1.6h2.7l0.7,1.6h1.5l-2.8-6.7h-1.4L577.4,436.4z M570.4,429.7l2.8,6.7h1.5l3-6.7h-1.6
	l-2,5.2h0l-2-5.2H570.4z M563.1,436.4h3.5c0.9,0,1.6-0.3,2-0.9c0.5-0.6,0.7-1.4,0.7-2.5c0-1.1-0.2-1.9-0.7-2.5
	c-0.5-0.6-1.1-0.9-2-0.9h-3.5V436.4z M564.5,430.8h1.7c0.6,0,1,0.2,1.2,0.6c0.3,0.4,0.4,0.9,0.4,1.6c0,0.7-0.1,1.3-0.4,1.6
	c-0.3,0.4-0.7,0.6-1.2,0.6h-1.7V430.8z M558,431.3l1,2.4h-1.9L558,431.3z M554.5,436.4h1.5l0.7-1.6h2.7l0.7,1.6h1.5l-2.8-6.7h-1.4
	L554.5,436.4z"/>
<path class="st1" d="M573.1,405.7h-8.4l3.6-7.1h1.1L573.1,405.7z M584.5,394.2v8.6c0,3.2,0,3.2,0.1,3.9c0.1,2.6,0.5,3.7,1.4,4.6
	c1.4,1.5,3.7,1.9,10.8,1.9c4.3,0,6.3-0.1,7.9-0.5c2.1-0.4,3.6-1.9,3.9-4.1c0.2-1.3,0.2-1.6,0.3-5.9v-8.6h-5.7v8.6
	c0,0.4,0,1.4-0.1,2.1c-0.1,1.6-0.2,2.1-0.7,2.6c-0.6,0.7-1.8,0.8-5.7,0.8c-4.9,0-6-0.3-6.3-1.8c-0.1-0.8-0.1-0.8-0.2-3.7v-8.6H584.5
	z M611.2,394.2v4.8h8.4v14h6v-14h8.4v-4.8H611.2z M649.1,398.8c5.3,0,5.9,0.1,6.5,0.9c0.5,0.6,0.6,1.7,0.6,4.4
	c0,2.3-0.2,3.1-0.8,3.6c-0.7,0.6-1.7,0.7-6.3,0.7c-4.6,0-5.7-0.1-6.4-0.7c-0.7-0.5-0.8-1.3-0.8-3.6c0-2.5,0.1-3.5,0.5-4.2
	C643,398.8,643.6,398.8,649.1,398.8z M649.1,393.9c-7.8,0-9.6,0.2-11,1.3c-1.4,1.1-1.9,3-1.9,8.3c0,5.5,0.4,7.4,1.9,8.5
	c1.4,1.1,3.3,1.3,11.1,1.3c7.7,0,9.5-0.2,11-1.3c1.4-1.1,1.9-3,1.9-8.4c0-5.4-0.4-7.3-1.9-8.4C658.7,394.1,656.9,393.9,649.1,393.9z
	 M665.3,394.2V413h5.6l-0.1-14.1h1l7.1,14.1h4.8l7.1-14.1h1l-0.1,14.1h5.6v-18.8h-10.3l-5.6,12.2l-5.6-12.2H665.3z M713.3,398.8
	c5.3,0,5.9,0.1,6.5,0.9c0.5,0.6,0.6,1.7,0.6,4.4c0,2.3-0.2,3.1-0.8,3.6c-0.7,0.6-1.7,0.7-6.3,0.7c-4.6,0-5.7-0.1-6.4-0.7
	c-0.7-0.5-0.8-1.3-0.8-3.6c0-2.5,0.1-3.5,0.5-4.2C707.2,398.8,707.8,398.8,713.3,398.8z M713.3,393.9c-7.8,0-9.6,0.2-11,1.3
	c-1.4,1.1-1.9,3-1.9,8.3c0,5.5,0.4,7.4,1.9,8.5c1.4,1.1,3.3,1.3,11.1,1.3c7.7,0,9.5-0.2,11-1.3c1.4-1.1,1.9-3,1.9-8.4
	c0-5.4-0.4-7.3-1.9-8.4C722.9,394.1,721.1,393.9,713.3,393.9z M728.5,394.2v4.8h8.4v14h6v-14h8.4v-4.8H728.5z M753.6,400.5V413h6
	v-17.6L753.6,400.5z M761.6,394.2l9.3,18.8h8.8l9.2-18.8h-6.3l-6.8,14.1h-1.1l-6.8-14.1H761.6z M790.8,394.2V413h20.9v-4.5h-15.3v-3
	h14.4v-4.1h-14.4v-2.7h15.2v-4.4H790.8z M576.7,413h6.5l-9.8-18.8h-8.9l-9.9,18.8h6.5l1.6-3.2h12.4L576.7,413z"/>
<polygon class="st0" points="753.6,394.2 753.6,399.2 759.6,394.2 "/>
<path class="st0" d="M809.5,422.1v1.8h2.2v-1.8H809.5z M806.3,421.3c0,1,0,1-2.3,1c-2.2,0-2.2,0-2.2-1.7c0-1,0.1-1.4,0.3-1.6
	c0.2-0.2,0.6-0.2,1.9-0.2c0.5,0,1.1,0,1.4,0c0.4,0,0.6,0.1,0.7,0.2c0.1,0.1,0.1,0.2,0.1,0.6h2.1v-0.3c0-1.1-0.2-1.6-0.8-1.9
	c-0.5-0.2-1.1-0.3-2.8-0.3c-3.5,0-4.2,0.2-4.6,1c-0.2,0.4-0.2,0.9-0.2,2.5c0,0.8,0,1.4,0,1.7c0.1,0.8,0.3,1.2,0.8,1.4
	c0.6,0.3,1.4,0.4,4,0.4c1.5,0,2.3-0.1,2.8-0.3c0.7-0.3,1-0.7,1-1.8c0-0.1,0-0.3,0-0.6H806.3z M789.2,417.2v6.7h2.1l-0.1-5h0.2l3.5,5
	h3.6v-6.7h-2.1l0.1,5h-0.2l-3.5-5H789.2z M785.7,417.2v6.7h2.2v-6.7H785.7z M779.6,421.9v2h0.6v0.2c0,0.4-0.2,0.5-0.5,0.5h-0.2h-0.2
	v1.1c0.2,0,0.4,0,0.5,0c1.1,0,1.4-0.1,1.7-0.4c0.2-0.3,0.3-0.6,0.3-1.4v-2H779.6z M770.7,417.2l3.9,4.4v2.4h2.1v-2.4l3.7-4.4h-2.7
	l-2.1,2.7l-2.2-2.7H770.7z M761.9,417.2v1.7h3v5h2.2v-5h3v-1.7H761.9z M753.9,417.2v6.7h7.5v-1.6h-5.5v-1.1h5.2v-1.5h-5.2v-1h5.4
	v-1.6H753.9z M746,417.2v6.7h2.1v-2.3h4.8V420H748v-1.3h5.1v-1.6H746z M741.7,421.3h-3l1.3-2.6h0.4L741.7,421.3z M743,423.9h2.3
	l-3.5-6.7h-3.2l-3.6,6.7h2.3l0.6-1.1h4.5L743,423.9z M726.3,421.7v0.3c0,1,0.2,1.4,0.7,1.6c0.5,0.3,1.3,0.4,3.3,0.4
	c2.1,0,2.9-0.1,3.3-0.2c0.7-0.3,0.9-0.8,0.9-2c0-1-0.2-1.4-0.7-1.7c-0.4-0.3-0.9-0.3-3.1-0.4c-1.5,0-2-0.1-2.2-0.1
	c-0.2-0.1-0.3-0.2-0.3-0.4c0-0.5,0.1-0.5,1.9-0.5c1.5,0,1.8,0,1.9,0.2c0.1,0.1,0.1,0.2,0.2,0.5h2c0-0.1,0-0.3,0-0.3
	c0-0.8-0.2-1.3-0.6-1.5c-0.5-0.3-1.2-0.4-3.1-0.4c-2.4,0-3,0.1-3.5,0.3c-0.5,0.3-0.7,0.9-0.7,1.9c0,0.7,0.1,1.1,0.4,1.4
	c0.3,0.3,0.8,0.5,1.8,0.5c0.2,0,0.9,0,1.6,0.1c0.7,0,1.4,0.1,1.6,0.1c0.7,0,0.8,0.1,0.8,0.5c0,0.3-0.1,0.4-0.2,0.5
	c-0.2,0.1-0.4,0.1-2,0.1c-1.4,0-1.7,0-1.9-0.1c-0.2-0.1-0.2-0.2-0.2-0.6H726.3z M718.4,421.3c0,1,0,1-2.3,1c-2.2,0-2.2,0-2.2-1.7
	c0-1,0.1-1.4,0.3-1.6c0.2-0.2,0.6-0.2,1.9-0.2c0.5,0,1.1,0,1.4,0c0.4,0,0.6,0.1,0.7,0.2c0.1,0.1,0.1,0.2,0.1,0.6h2.1v-0.3
	c0-1.1-0.2-1.6-0.8-1.9c-0.5-0.2-1.1-0.3-2.8-0.3c-3.5,0-4.2,0.2-4.6,1c-0.2,0.4-0.2,0.9-0.2,2.5c0,0.8,0,1.4,0,1.7
	c0.1,0.8,0.3,1.2,0.8,1.4c0.6,0.3,1.4,0.4,4,0.4c1.5,0,2.3-0.1,2.8-0.3c0.7-0.3,1-0.7,1-1.8c0-0.1,0-0.3,0-0.6H718.4z M708.5,417.2
	v6.7h2.2v-6.7H708.5z M700.6,417.2v6.7h2.1v-2.3h4.8V420h-4.8v-1.3h5.1v-1.6H700.6z M692.6,417.2v6.7h2.1v-2.3h4.8V420h-4.8v-1.3
	h5.1v-1.6H692.6z M688.3,421.3h-3l1.3-2.6h0.4L688.3,421.3z M689.6,423.9h2.3l-3.5-6.7h-3.2l-3.6,6.7h2.3l0.6-1.1h4.5L689.6,423.9z
	 M674.9,420.5v-1.7h2.9c0.9,0,1,0,1.1,0.1c0.2,0.1,0.3,0.3,0.3,0.7s-0.1,0.6-0.2,0.7c-0.1,0.1-0.1,0.1-1.2,0.1H674.9z M672.8,423.9
	h2.1v-1.7h2.9c0.8,0,1,0,1.1,0.2c0.2,0.2,0.2,0.4,0.2,1.2v0.4h2v-0.6c0-1.6-0.1-1.9-1.2-2c0.4-0.1,0.6-0.1,0.8-0.3
	c0.3-0.3,0.4-0.7,0.4-1.6c0-1.2-0.2-1.6-0.7-1.9c-0.4-0.3-0.4-0.3-2.8-0.3h-5V423.9z M663.9,417.2v1.7h3v5h2.2v-5h3v-1.7H663.9z
	 M651.9,420.5v-1.7h2.9c0.9,0,1,0,1.1,0.1c0.2,0.1,0.3,0.3,0.3,0.7s-0.1,0.6-0.2,0.7c-0.1,0.1-0.1,0.1-1.2,0.1H651.9z M649.8,423.9
	h2.1v-1.7h2.9c0.8,0,1,0,1.1,0.2c0.2,0.2,0.2,0.4,0.2,1.2v0.4h2v-0.6c0-1.6-0.1-1.9-1.2-2c0.4-0.1,0.6-0.1,0.8-0.3
	c0.3-0.3,0.4-0.7,0.4-1.6c0-1.2-0.2-1.6-0.7-1.9c-0.4-0.3-0.4-0.3-2.8-0.3h-5V423.9z M644,418.8c1.9,0,2.1,0,2.3,0.3
	c0.2,0.2,0.2,0.6,0.2,1.6c0,0.8-0.1,1.1-0.3,1.3c-0.3,0.2-0.6,0.2-2.3,0.2c-1.7,0-2,0-2.3-0.2c-0.2-0.2-0.3-0.5-0.3-1.3
	c0-0.9,0-1.3,0.2-1.5C641.8,418.8,642,418.8,644,418.8z M644,417.1c-2.8,0-3.4,0.1-4,0.5c-0.5,0.4-0.7,1.1-0.7,3
	c0,2,0.2,2.6,0.7,3.1c0.5,0.4,1.2,0.5,4,0.5c2.8,0,3.4-0.1,3.9-0.5c0.5-0.4,0.7-1.1,0.7-3c0-1.9-0.2-2.6-0.7-3
	C647.5,417.1,646.8,417.1,644,417.1z M631.5,417.2v6.7h2.1v-2.3h4.8V420h-4.8v-1.3h5.1v-1.6H631.5z M618.2,417.2v6.7h2.1l-0.1-5h0.2
	l3.5,5h3.6v-6.7h-2.1l0.1,5h-0.2l-3.5-5H618.2z M612.4,418.8c1.9,0,2.1,0,2.3,0.3c0.2,0.2,0.2,0.6,0.2,1.6c0,0.8-0.1,1.1-0.3,1.3
	c-0.3,0.2-0.6,0.2-2.3,0.2c-1.7,0-2,0-2.3-0.2c-0.2-0.2-0.3-0.5-0.3-1.3c0-0.9,0-1.3,0.2-1.5C610.3,418.8,610.5,418.8,612.4,418.8z
	 M612.4,417.1c-2.8,0-3.4,0.1-4,0.5c-0.5,0.4-0.7,1.1-0.7,3c0,2,0.2,2.6,0.7,3.1c0.5,0.4,1.2,0.5,4,0.5c2.8,0,3.4-0.1,3.9-0.5
	c0.5-0.4,0.7-1.1,0.7-3c0-1.9-0.2-2.6-0.7-3C615.9,417.1,615.2,417.1,612.4,417.1z M604.5,417.2v6.7h2.2v-6.7H604.5z M595.5,417.2
	v1.7h3v5h2.2v-5h3v-1.7H595.5z M592.5,417.2v6.7h2.2v-6.7H592.5z M584.7,417.2v6.7h6.9v-1.7h-4.8v-5H584.7z M580.4,421.3h-3l1.3-2.6
	h0.4L580.4,421.3z M581.7,423.9h2.3l-3.5-6.7h-3.2l-3.6,6.7h2.3l0.6-1.1h4.5L581.7,423.9z M568.7,418.8c1.9,0,2.1,0,2.3,0.3
	c0.2,0.2,0.2,0.6,0.2,1.6c0,0.8-0.1,1.1-0.3,1.3c-0.3,0.2-0.6,0.2-2.3,0.2c-1.7,0-2,0-2.3-0.2c-0.2-0.2-0.3-0.5-0.3-1.3
	c0-0.9,0-1.3,0.2-1.5C566.5,418.8,566.7,418.8,568.7,418.8z M568.7,417.1c-2.8,0-3.4,0.1-4,0.5c-0.5,0.4-0.7,1.1-0.7,3
	c0,2,0.2,2.6,0.7,3.1c0.5,0.4,1.2,0.5,4,0.5c2.8,0,3.4-0.1,3.9-0.5c0.5-0.4,0.7-1.1,0.7-3c0-1.9-0.2-2.6-0.7-3
	C572.1,417.1,571.5,417.1,568.7,417.1z M561,421.3c0,1,0,1-2.3,1c-2.2,0-2.2,0-2.2-1.7c0-1,0.1-1.4,0.3-1.6c0.2-0.2,0.6-0.2,1.9-0.2
	c0.5,0,1.1,0,1.4,0c0.4,0,0.6,0.1,0.7,0.2c0.1,0.1,0.1,0.2,0.1,0.6h2.1v-0.3c0-1.1-0.2-1.6-0.8-1.9c-0.5-0.2-1.1-0.3-2.8-0.3
	c-3.5,0-4.2,0.2-4.6,1c-0.2,0.4-0.2,0.9-0.2,2.5c0,0.8,0,1.4,0,1.7c0.1,0.8,0.3,1.2,0.8,1.4c0.6,0.3,1.4,0.4,4,0.4
	c1.5,0,2.3-0.1,2.8-0.3c0.7-0.3,1-0.7,1-1.8c0-0.1,0-0.3,0-0.6H561z"/>
<rect x="554.5" y="426.5" class="st2" width="257.2" height="1.4"/>
<rect x="554.5" y="438.2" class="st2" width="257.2" height="1.4"/>
<path class="st1" d="M627.6,362.7c-0.8-2.5-1.3-5.2-1.3-8c0-7.7,3-13.9,8.9-18.6c5.9-4.7,13.5-7.1,22.7-7.1h28.6l-10.5,13.5H658
	c-4.4,0-8.1,1.2-11,3.6c-2.9,2.4-4.3,5.5-4.3,9.2c0,3.7,1.5,6.7,4.3,9l-18.1,0.1l0,0h-0.6h-19.6l-11.8-15.4l-13,18.9h25l-10.4,13.5
	h-27.5h-16.4l31.2-46.6c1.1-1.6,2.5-3,4.2-4.1c2-1.3,4-1.9,6-1.9c1.9,0,4,0.6,6.1,1.9c1.9,1.2,3.5,2.5,4.6,4.1L627.6,362.7z
	 M748.7,330c-21.8,9.7-42.4,24.3-43.7,51.4h-9.2c2.9-10.8,5.7-16.6,10.6-23.7v-15.3h-22.9l10.5-13.6h32.8h23.5h1.8
	C750.9,329.2,749.8,329.6,748.7,330z M733.8,379.8c-1-3.5-1.5-7.3-1.4-11.1c0.3-8.8,3.9-17,9.8-23.8c0,0.2,0,0.4,0,0.6v0.4
	c0,4,1.3,7.3,3.8,10.1c3.7,3.8,9,5.7,15.9,5.7h28.8c0.8,0,1.4,0,2,0.1c2.3,0.6,3.4,1.6,3.4,3c0,0.8-0.4,1.5-1.2,2.1
	c-0.7,0.7-2.5,1-5.4,1H743L733.8,379.8z M765.7,328.8c-21.4,5.7-37.2,22.1-37.9,41.4c-0.1,3.8,0.3,7.5,1.3,11.1h3.6h1.5H788
	c4.7,0,8.8-0.8,12.2-2.5c6.7-3.3,10.1-8.2,10.1-14.5c0-3.4-0.9-6.3-2.6-8.8c-3.5-4.7-9.4-7.1-17.8-7.1h-28.8c-1,0-1.8-0.1-2.5-0.4
	c-1.9-0.6-2.8-1.5-2.8-2.7l0.1-0.7c0.6-1.6,2.3-2.5,5.1-2.6h40.1l10.4-13.3v-0.1h-43.9h-0.5H765.7z M640,381.3h48.5
	c1.8-4,4.1-8.8,8-13.5h-46.1L640,381.3z"/>
<path class="st0" d="M582.1,381.3h5l10.4-13.5h-5L582.1,381.3z M591.2,381.3h5l10.4-13.5h-5L591.2,381.3z M600.4,381.3h5l10.4-13.5
	h-5L600.4,381.3z M572.9,381.3h5l10.4-13.5h-5L572.9,381.3z"/>
</svg>
