<?xml version="1.0" encoding="utf-8"?>
<!-- Generator: Adobe Illustrator 25.4.1, SVG Export Plug-In . SVG Version: 6.00 Build 0)  -->
<svg version="1.1" id="Layer_1" xmlns="http://www.w3.org/2000/svg" xmlns:xlink="http://www.w3.org/1999/xlink" x="0px" y="0px"
	 viewBox="0 0 672.1 182.2" style="enable-background:new 0 0 672.1 182.2;" xml:space="preserve">
<style type="text/css">
	.st0{fill:#FFFFFF;}
	.st1{fill:#333333;}
</style>
<path class="st0" d="M511.9,102.5c0,1.8,1.4,3.2,3.2,3.2l0,0c1.8,0,3.2-1.4,3.2-3.2l0,0l0,0c0-1.8-1.4-3.2-3.2-3.2l0,0
	C513.3,99.3,511.9,100.7,511.9,102.5z M511.9,84.8c0,1.8,1.4,3.2,3.2,3.2l0,0c1.8,0,3.2-1.4,3.2-3.2l0,0c0-1.8-1.4-3.2-3.2-3.2l0,0
	C513.3,81.6,511.9,83,511.9,84.8z M558.4,94.6c0,1.8,1.4,3.2,3.2,3.2l0,0c1.8,0,3.2-1.4,3.2-3.2l0,0c0-1.8-1.4-3.2-3.2-3.2l0,0l0,0
	C559.8,91.4,558.4,92.9,558.4,94.6L558.4,94.6z M558.4,112.3c0,1.8,1.4,3.2,3.2,3.2l0,0c1.8,0,3.2-1.4,3.2-3.2l0,0l0,0
	c0-1.8-1.4-3.2-3.2-3.2l0,0l0,0C559.8,109.2,558.4,110.6,558.4,112.3z M539.9,120.4l-36.9-0.7c-2.3,6.2-8.2,10.2-15.5,10.2
	c-8.5,0-15.5-6-16.8-13.7l-0.5,0.1c0,0-16.9-0.9-20.8-5.7c-3.2-4-3.9-10.3-3.9-10.3l-0.2-3.6l3-2.1h25.8l9.1,9.1h26.5
	c0.7,3,3.7,4.9,6.7,4.3s4.9-3.7,4.3-6.7c-0.6-3-3.7-4.9-6.7-4.3c-2.1,0.5-3.8,2.1-4.3,4.3h-25.5l-9.1-9.1h-26.4
	c-0.1-1.8-0.2-4.3-0.1-6.2h61.1c0.7,3,3.7,4.9,6.7,4.3c3-0.7,4.9-3.7,4.3-6.7c-0.6-3-3.7-4.9-6.7-4.3c-2.1,0.5-3.8,2.1-4.3,4.3h-61
	c0.2-2.3,0.5-4.6,1.1-6.8c0,0,15.8-3.4,29.2-10.6c5.2-2.8,18.5-8.7,31.3-10.3c3.7-0.4,16-0.4,24.3-0.3c-12.8,1-22.3,4.8-22.3,9.1
	c0.1,1,0.5,2,1.2,2.6c0,0.2,20.5,18.2,27.2,24c0,7.4,0,17.3,0,17.8C540.7,113.2,540.8,117.2,539.9,120.4z M660.6,105.7
	c0.1,0.6,0.3,10.4,0.3,10.4s-6.5,11.6-7.3,12.7c-0.5,0.8-0.9,0.6-2.8,0.7l-9.5-0.1c-2.9,9-12.6,14-21.7,11
	c-5.4-1.8-9.6-6.1-11.2-11.5h-3.9h-43.8c0.8-0.5,1.4-1.3,1.5-2.3c0-3-7.2-5.5-16.7-5.9c-0.9-3.3-0.8-7.3-0.7-11.4
	c0-0.6,0-10.4,0-17.8l26.8-23.2l0,0c0.3-0.3,0.4-0.7,0.5-1.2c0-0.4-0.1-0.8-0.4-1.1c-4.1,2-14,3.4-25.4,3.4
	c-15.2,0-27.5-2.4-27.5-5.4s12.3-5.4,27.5-5.4c9.8,0,18.5,1,23.3,2.6l0,0c8.1,2.7,15.7,6.8,22.4,12.1c13.4,10.8,26.7,11.8,26.7,11.8
	s9.5,1,15.5,1.9c4.6,0.7,9.2,1.7,13.7,3.1c1.9,0.6,3.7,1.4,5.3,2.5l4.8,10h-55.4l-9.1-9.1H567c-0.7-3-3.7-4.9-6.7-4.3
	s-4.9,3.7-4.3,6.7c0.6,3,3.7,4.9,6.7,4.3c2.1-0.5,3.8-2.1,4.3-4.3h25.5l9.1,9.1h10.7v6.2H567c-0.7-3-3.7-4.9-6.7-4.3
	c-3,0.7-4.9,3.7-4.3,6.7c0.6,3,3.7,4.9,6.7,4.3c2.1-0.5,3.8-2.1,4.3-4.3h47.7V105h44.9l0,0C659.6,104.9,660.5,105.1,660.6,105.7
	L660.6,105.7z"/>
<path class="st0" d="M455.2,52.1v6.4h-1.5v-6.4h-2.5v-1.4h6.5v1.4H455.2z"/>
<path class="st0" d="M464.1,58.5v-5.1h-1.2v1.3h-1.4v-1.3h-1.2v5.1h-1.4v-7.8h1.4V52h1.3v1.3h1.2V52h1.3v-1.3h1.4v7.8H464.1z"/>
<path class="st1" d="M14.3,81c0,0,0-25.6,25.8-25.6h17.2V21h17.2v120.1h-8.7l-8.5-8.7c0,8.7-8.7,8.7-8.7,8.7h-8.5
	c-25.8,0-25.8-25.8-25.8-25.8V81z M31.5,81v34.3c0,8.7,8.7,8.7,8.7,8.7h8.5c8.7,0,8.7-8.7,8.7-8.7V72.5H40.1
	C31.5,72.5,31.5,81,31.5,81z M126.7,55.2c25.6,0,25.6,25.8,25.6,25.8v60.1h-8.5l-8.7-8.7c0,0,0,8.7-8.5,8.7H118
	c-25.8,0-25.8-25.8-25.8-25.8s0-25.8,25.8-25.8h17.2V81c0,0,0-8.7-8.5-8.7h-25.9V55.2H126.7z M135.2,115.3v-8.7h-17.1
	c-8.7,0-8.7,8.7-8.7,8.7s0,8.7,8.7,8.7h8.7C135.2,124,135.2,115.3,135.2,115.3L135.2,115.3z M169.8,81c0,0,0-25.6,25.8-25.6h17.1V21
	h17.2v120.1h-8.7l-8.5-8.7c0,8.7-8.7,8.7-8.7,8.7h-8.5c-25.8,0-25.8-25.8-25.8-25.8L169.8,81z M186.9,81v34.3c0,8.7,8.7,8.7,8.7,8.7
	h8.5c8.7,0,8.7-8.7,8.7-8.7V72.5h-17.1C186.9,72.5,186.9,81,186.9,81L186.9,81z M256.3,124h25.8c8.5,0,8.5-8.7,8.5-8.7
	s0-8.7-8.5-8.7h-8.7c-25.8,0-25.8-25.6-25.8-25.6s0-25.8,25.8-25.8h25.8v17.2h-25.8c-8.7,0-8.7,8.7-8.7,8.7s0,8.5,8.7,8.5h8.7
	c25.7,0,25.7,25.8,25.7,25.8s0,25.8-25.7,25.8h-25.8V124z M328,124h25.8c8.5,0,8.5-8.7,8.5-8.7s0-8.7-8.5-8.7h-8.6
	c-25.8,0-25.8-25.6-25.8-25.6s0-25.8,25.8-25.8H371v17.2h-25.8c-8.7,0-8.7,8.7-8.7,8.7s0,8.5,8.7,8.5h8.7
	c25.7,0,25.7,25.8,25.7,25.8s0,25.8-25.7,25.8h-25.8L328,124z"/>
</svg>
