<?xml version="1.0" encoding="utf-8"?>
<!-- Generator: Adobe Illustrator 21.1.0, SVG Export Plug-In . SVG Version: 6.00 Build 0)  -->
<svg version="1.1" id="Layer_1" xmlns="http://www.w3.org/2000/svg" xmlns:xlink="http://www.w3.org/1999/xlink" x="0px" y="0px"
	 viewBox="0 0 672.1 182.2" style="enable-background:new 0 0 672.1 182.2;" xml:space="preserve">
<style type="text/css">
	.st0{fill:url(#SVGID_1_);}
	.st1{fill:#FFFFFF;}
	.st2{fill:#333333;}
</style>
<title>DADSS_logo</title>
<radialGradient id="SVGID_1_" cx="535.45" cy="-51.14" r="216.4048" gradientTransform="matrix(1 0 0 1 0 142.24)" gradientUnits="userSpaceOnUse">
	<stop  offset="0" style="stop-color:#F8971D"/>
	<stop  offset="0.64" style="stop-color:#F47221"/>
	<stop  offset="1" style="stop-color:#F26322"/>
</radialGradient>
<rect x="398.9" class="st0" width="273.1" height="182.2"/>
<path class="st1" d="M498.2,98.2c0,1.8,1.4,3.2,3.2,3.2l0,0c1.8,0,3.2-1.4,3.2-3.2l0,0l0,0c0-1.8-1.4-3.2-3.2-3.2l0,0
	C499.6,95,498.2,96.4,498.2,98.2z M498.2,80.5c0,1.8,1.4,3.2,3.2,3.2l0,0c1.8,0,3.2-1.4,3.2-3.2l0,0c0-1.8-1.4-3.2-3.2-3.2l0,0
	C499.6,77.3,498.2,78.7,498.2,80.5z M544.7,90.3c0,1.8,1.4,3.2,3.2,3.2l0,0c1.8,0,3.2-1.4,3.2-3.2l0,0c0-1.8-1.4-3.2-3.2-3.2l0,0
	l0,0C546.1,87.1,544.7,88.6,544.7,90.3L544.7,90.3z M544.7,108c0,1.8,1.4,3.2,3.2,3.2l0,0c1.8,0,3.2-1.4,3.2-3.2l0,0l0,0
	c0-1.8-1.4-3.2-3.2-3.2l0,0l0,0C546.1,104.9,544.7,106.3,544.7,108z M526.2,116.1l-36.9-0.7c-2.3,6.2-8.2,10.2-15.5,10.2
	c-8.5,0-15.5-6-16.8-13.7l-0.5,0.1c0,0-16.9-0.9-20.8-5.7c-3.2-4-3.9-10.3-3.9-10.3l-0.2-3.6l3-2.1h25.8l9.1,9.1H496
	c0.7,3,3.7,4.9,6.7,4.3s4.9-3.7,4.3-6.7s-3.7-4.9-6.7-4.3c-2.1,0.5-3.8,2.1-4.3,4.3h-25.5l-9.1-9.1H435c-0.1-1.8-0.2-4.3-0.1-6.2
	H496c0.7,3,3.7,4.9,6.7,4.3c3-0.7,4.9-3.7,4.3-6.7s-3.7-4.9-6.7-4.3c-2.1,0.5-3.8,2.1-4.3,4.3h-61c0.2-2.3,0.5-4.6,1.1-6.8
	c0,0,15.8-3.4,29.2-10.6c5.2-2.8,18.5-8.7,31.3-10.3c3.7-0.4,16-0.4,24.3-0.3c-12.8,1-22.3,4.8-22.3,9.1c0.1,1,0.5,2,1.2,2.6
	c0,0.2,20.5,18.2,27.2,24c0,7.4,0,17.3,0,17.8C527,108.9,527.1,112.9,526.2,116.1z M646.9,101.4c0.1,0.6,0.3,10.4,0.3,10.4
	s-6.5,11.6-7.3,12.7c-0.5,0.8-0.9,0.6-2.8,0.7l-9.5-0.1c-2.9,9-12.6,14-21.7,11c-5.4-1.8-9.6-6.1-11.2-11.5h-3.9H547
	c0.8-0.5,1.4-1.3,1.5-2.3c0-3-7.2-5.5-16.7-5.9c-0.9-3.3-0.8-7.3-0.7-11.4c0-0.6,0-10.4,0-17.8L557.9,64l0,0
	c0.3-0.3,0.4-0.7,0.5-1.2c0-0.4-0.1-0.8-0.4-1.1c-4.1,2-14,3.4-25.4,3.4c-15.2,0-27.5-2.4-27.5-5.4s12.3-5.4,27.5-5.4
	c9.8,0,18.5,1,23.3,2.6l0,0c8.1,2.7,15.7,6.8,22.4,12.1C591.7,79.8,605,80.8,605,80.8s9.5,1,15.5,1.9c4.6,0.7,9.2,1.7,13.7,3.1
	c1.9,0.6,3.7,1.4,5.3,2.5l4.8,10h-55.4l-9.1-9.1h-26.5c-0.7-3-3.7-4.9-6.7-4.3s-4.9,3.7-4.3,6.7s3.7,4.9,6.7,4.3
	c2.1-0.5,3.8-2.1,4.3-4.3h25.5l9.1,9.1h10.7v6.2h-45.3c-0.7-3-3.7-4.9-6.7-4.3c-3,0.7-4.9,3.7-4.3,6.7s3.7,4.9,6.7,4.3
	c2.1-0.5,3.8-2.1,4.3-4.3H601v-8.6h44.9l0,0C645.9,100.6,646.8,100.8,646.9,101.4L646.9,101.4z"/>
<path class="st1" d="M441.5,47.8v6.4H440v-6.4h-2.5v-1.4h6.5v1.4H441.5z"/>
<path class="st1" d="M450.4,54.2v-5.1h-1.2v1.3h-1.4v-1.3h-1.2v5.1h-1.4v-7.8h1.4v1.3h1.3V49h1.2v-1.3h1.3v-1.3h1.4v7.8H450.4z"/>
<path class="st2" d="M0.6,76.7c0,0,0-25.6,25.8-25.6h17.2V16.7h17.2v120.1h-8.7l-8.5-8.7c0,8.7-8.7,8.7-8.7,8.7h-8.5
	C0.6,136.8,0.6,111,0.6,111V76.7z M17.8,76.7V111c0,8.7,8.7,8.7,8.7,8.7H35c8.7,0,8.7-8.7,8.7-8.7V68.2H26.4
	C17.8,68.2,17.8,76.7,17.8,76.7z M113,50.9c25.6,0,25.6,25.8,25.6,25.8v60.1h-8.5l-8.7-8.7c0,0,0,8.7-8.5,8.7h-8.6
	c-25.8,0-25.8-25.8-25.8-25.8s0-25.8,25.8-25.8h17.2v-8.5c0,0,0-8.7-8.5-8.7H87.1V50.9H113z M121.5,111v-8.7h-17.1
	c-8.7,0-8.7,8.7-8.7,8.7s0,8.7,8.7,8.7h8.7C121.5,119.7,121.5,111,121.5,111L121.5,111z M156.1,76.7c0,0,0-25.6,25.8-25.6H199V16.7
	h17.2v120.1h-8.7l-8.5-8.7c0,8.7-8.7,8.7-8.7,8.7h-8.5C156,136.8,156,111,156,111L156.1,76.7z M173.2,76.7V111
	c0,8.7,8.7,8.7,8.7,8.7h8.5c8.7,0,8.7-8.7,8.7-8.7V68.2H182C173.2,68.2,173.2,76.7,173.2,76.7L173.2,76.7z M242.6,119.7h25.8
	c8.5,0,8.5-8.7,8.5-8.7s0-8.7-8.5-8.7h-8.7c-25.8,0-25.8-25.6-25.8-25.6s0-25.8,25.8-25.8h25.8v17.2h-25.8c-8.7,0-8.7,8.7-8.7,8.7
	s0,8.5,8.7,8.5h8.7c25.7,0,25.7,25.8,25.7,25.8s0,25.8-25.7,25.8h-25.8L242.6,119.7z M314.3,119.7h25.8c8.5,0,8.5-8.7,8.5-8.7
	s0-8.7-8.5-8.7h-8.6c-25.8,0-25.8-25.6-25.8-25.6s0-25.8,25.8-25.8h25.8v17.2h-25.8c-8.7,0-8.7,8.7-8.7,8.7s0,8.5,8.7,8.5h8.7
	c25.7,0,25.7,25.8,25.7,25.8s0,25.8-25.7,25.8h-25.8L314.3,119.7z"/>
</svg>
