<?xml version="1.0" encoding="utf-8"?>
<!-- Generator: Adobe Illustrator 25.4.1, SVG Export Plug-In . SVG Version: 6.00 Build 0)  -->
<svg version="1.1" id="Layer_1" xmlns="http://www.w3.org/2000/svg" xmlns:xlink="http://www.w3.org/1999/xlink" x="0px" y="0px"
	 viewBox="0 0 672.1 182.2" style="enable-background:new 0 0 672.1 182.2;" xml:space="preserve">
<style type="text/css">
	.st0{fill:#333436;}
	.st1{fill:#00A4E7;}
	.st2{fill:url(#SVGID_1_);}
	.st3{fill:url(#SVGID_00000019642126916992970300000010049750855907461797_);}
</style>
<path class="st0" d="M456.3,56.6V63h-1.5v-6.4h-2.5v-1.4h6.5v1.4H456.3z"/>
<path class="st0" d="M465.2,63v-5.1H464v1.3h-1.4v-1.3h-1.2V63H460v-7.8h1.4v1.3h1.3v1.3h1.2v-1.3h1.3v-1.3h1.4V63H465.2z"/>
<path class="st0" d="M9.9,87.6c0,0,0-25.6,25.8-25.6h17.2V27.6h17.2v120.1h-8.7l-8.5-8.7c0,8.7-8.7,8.7-8.7,8.7h-8.5
	c-25.8,0-25.8-25.8-25.8-25.8S9.9,87.6,9.9,87.6z M27.1,87.6v34.3c0,8.7,8.7,8.7,8.7,8.7h8.5c8.7,0,8.7-8.7,8.7-8.7V79.1H35.7
	C27.1,79.1,27.1,87.6,27.1,87.6z M122.3,61.8c25.6,0,25.6,25.8,25.6,25.8v60.1h-8.5l-8.7-8.7c0,0,0,8.7-8.5,8.7h-8.6
	c-25.8,0-25.8-25.8-25.8-25.8s0-25.8,25.8-25.8h17.2v-8.5c0,0,0-8.7-8.5-8.7H96.4V61.8H122.3z M130.8,121.9v-8.7h-17.1
	c-8.7,0-8.7,8.7-8.7,8.7s0,8.7,8.7,8.7h8.7C130.8,130.6,130.8,121.9,130.8,121.9L130.8,121.9z M165.4,87.6c0,0,0-25.6,25.8-25.6
	h17.1V27.6h17.2v120.1h-8.7l-8.5-8.7c0,8.7-8.7,8.7-8.7,8.7h-8.5c-25.8,0-25.8-25.8-25.8-25.8L165.4,87.6z M182.5,87.6v34.3
	c0,8.7,8.7,8.7,8.7,8.7h8.5c8.7,0,8.7-8.7,8.7-8.7V79.1h-17.1C182.5,79.1,182.5,87.6,182.5,87.6L182.5,87.6z M251.9,130.6h25.8
	c8.5,0,8.5-8.7,8.5-8.7s0-8.7-8.5-8.7H269c-25.8,0-25.8-25.6-25.8-25.6s0-25.8,25.8-25.8h25.8V79H269c-8.7,0-8.7,8.7-8.7,8.7
	s0,8.5,8.7,8.5h8.7c25.7,0,25.7,25.8,25.7,25.8s0,25.8-25.7,25.8h-25.8L251.9,130.6z M323.6,130.6h25.8c8.5,0,8.5-8.7,8.5-8.7
	s0-8.7-8.5-8.7h-8.6c-25.8,0-25.8-25.6-25.8-25.6s0-25.8,25.8-25.8h25.8V79h-25.8c-8.7,0-8.7,8.7-8.7,8.7s0,8.5,8.7,8.5h8.7
	c25.7,0,25.7,25.8,25.7,25.8s0,25.8-25.7,25.8h-25.8L323.6,130.6z"/>
<g>
	<path class="st1" d="M510.2,115.5c0,1.8,1.4,3.2,3.3,3.3l0,0c1.8,0,3.2-1.4,3.2-3.3l0,0c0-1.8-1.4-3.2-3.2-3.2l0,0
		C511.6,112.3,510.2,113.7,510.2,115.5L510.2,115.5z"/>
</g>
<g>
	<path class="st1" d="M510.2,97.4c0,1.8,1.4,3.2,3.3,3.3l0,0c1.8,0,3.2-1.4,3.2-3.3l0,0c0-1.8-1.4-3.2-3.2-3.2l0,0
		C511.6,94.1,510.2,95.7,510.2,97.4L510.2,97.4z"/>
</g>
<g>
	<path class="st1" d="M557.6,107.5c0,1.8,1.4,3.2,3.2,3.2l0,0c1.8,0,3.2-1.4,3.3-3.2l0,0c0-1.8-1.4-3.3-3.3-3.3l0,0
		C559,104.2,557.6,105.6,557.6,107.5L557.6,107.5L557.6,107.5z"/>
</g>
<g>
	<path class="st1" d="M557.6,125.6c0,1.8,1.4,3.2,3.2,3.2l0,0c1.8,0,3.3-1.4,3.3-3.2l0,0c0-1.8-1.4-3.3-3.3-3.3l0,0
		C559,122.3,557.6,123.8,557.6,125.6L557.6,125.6L557.6,125.6z"/>
</g>
<linearGradient id="SVGID_1_" gradientUnits="userSpaceOnUse" x1="376.2007" y1="498.8409" x2="376.2007" y2="430.4095" gradientTransform="matrix(1.1073 0 0 -1.1073 74.2516 619.9352)">
	<stop  offset="0" style="stop-color:#F26322"/>
	<stop  offset="1" style="stop-color:#D8461F"/>
</linearGradient>
<path class="st2" d="M539.5,122.5c0-0.6,0-10.6,0-18.2c-6.9-6.1-27.7-24.4-27.8-24.6c-0.8-0.9-1.2-1.8-1.2-2.7
	c0-4.4,9.7-8.3,22.8-9.3c-8.5-0.2-21-0.2-24.8,0.2c-13.1,1.6-26.7,7.6-32,10.5c-13.7,7.4-29.8,10.9-29.8,10.9s-0.8,2.9-1.1,7h62.2
	c0.6-2.5,2.9-4.5,5.6-4.5c3.2,0,5.8,2.5,5.8,5.8s-2.5,5.8-5.8,5.8c-2.8,0-5-1.9-5.6-4.5h-62.4c0,2,0.1,4.5,0.1,6.3h26.9l9.3,9.3h26
	c0.6-2.5,2.9-4.5,5.6-4.5c3.2,0,5.8,2.5,5.8,5.8s-2.5,5.8-5.8,5.8c-2.8,0-5-1.9-5.5-4.4h-27.1l-9.3-9.3h-26.3l-3,2l0.2,3.7
	c0,0,0.7,6.4,4,10.5c4,4.9,21.3,5.8,21.3,5.8l0.6-0.1c1.2,8,8.4,14,17.1,14c7.5,0,13.5-4,15.8-10.4l37.6,0.8
	C539.8,130.6,539.5,126.5,539.5,122.5z"/>
<linearGradient id="SVGID_00000132051581027227734200000008038210627580282559_" gradientUnits="userSpaceOnUse" x1="465.5905" y1="496.0829" x2="465.5905" y2="419.9518" gradientTransform="matrix(1.1073 0 0 -1.1073 74.2516 619.9352)">
	<stop  offset="0" style="stop-color:#F8971D"/>
	<stop  offset="0.1993" style="stop-color:#F68C1F"/>
	<stop  offset="0.7259" style="stop-color:#F36F21"/>
	<stop  offset="1" style="stop-color:#F26322"/>
</linearGradient>
<path style="fill:url(#SVGID_00000132051581027227734200000008038210627580282559_);" d="M661,117.9L661,117.9h-45.8v8.9h-48.6
	c-0.6,2.5-2.9,4.5-5.6,4.5c-3.2,0-5.8-2.5-5.8-5.8s2.5-5.8,5.8-5.8c2.8,0,5,1.9,5.6,4.5h46.2v-6.3h-10.9l-9.3-9.3h-26
	c-0.6,2.5-2.9,4.5-5.6,4.5c-3.2,0-5.8-2.5-5.8-5.8c0-3.2,2.5-5.8,5.8-5.8c2.8,0,5,1.9,5.5,4.4h27l9.3,9.3h56.6l-4.9-10.2
	c0,0-2.2-1.4-5.4-2.5c-3.2-1-7.9-2.2-14-3.1s-15.8-2-15.8-2s-13.6-1-27.2-12.1C581.2,76.4,569.2,73,569.2,73l0,0
	c-5-1.6-13.7-2.7-23.8-2.7c-15.5,0-28,2.4-28,5.5s12.5,5.5,28,5.5c11.7,0,21.7-1.4,25.9-3.4c0.2,0.3,0.3,0.8,0.3,1.1
	c0,0.4-0.1,0.8-0.4,1.2l0,0L544,103.8c0,7.5,0,17.6,0,18.2c-0.1,4.1-0.2,8.3,0.7,11.6c9.6,0.4,16.9,3,16.9,6.1
	c0,0.9-0.6,1.7-1.6,2.3h44.8c0,0,1.6,0,4,0c1.9,7.2,8.6,12.6,16.8,12.6c8,0,14.7-5.1,16.7-12.2l9.6,0.1c1.9-0.1,2.3,0.1,2.9-0.7
	c0.8-1.1,7.4-13,7.4-13s-0.2-10-0.3-10.6C661.8,118.2,661,117.9,661,117.9z"/>
</svg>
