<?xml version="1.0" encoding="utf-8"?>
<!-- Generator: Adobe Illustrator 18.0.0, SVG Export Plug-In . SVG Version: 6.00 Build 0)  -->
<!DOCTYPE svg PUBLIC "-//W3C//DTD SVG 1.1//EN" "http://www.w3.org/Graphics/SVG/1.1/DTD/svg11.dtd">
<svg version="1.1" id="Layer_1" xmlns="http://www.w3.org/2000/svg" xmlns:xlink="http://www.w3.org/1999/xlink" x="0px" y="0px"
	 viewBox="0 355.8 220 87.4" enable-background="new 0 355.8 220 87.4" xml:space="preserve">
<g>
	<path fill="#00A4E7" d="M68.1,403.7c0,1.8,1.4,3.2,3.3,3.3l0,0c1.8,0,3.2-1.4,3.2-3.3l0,0c0-1.8-1.4-3.2-3.2-3.2l0,0
		C69.5,400.5,68.1,401.9,68.1,403.7L68.1,403.7z"/>
</g>
<g>
	<path fill="#00A4E7" d="M68.1,385.6c0,1.8,1.4,3.2,3.3,3.3l0,0c1.8,0,3.2-1.4,3.2-3.3l0,0c0-1.8-1.4-3.2-3.2-3.2l0,0
		C69.5,382.3,68.1,383.9,68.1,385.6L68.1,385.6z"/>
</g>
<g>
	<path fill="#00A4E7" d="M115.5,395.7c0,1.8,1.4,3.2,3.2,3.2l0,0c1.8,0,3.2-1.4,3.3-3.2l0,0c0-1.8-1.4-3.3-3.3-3.3l0,0
		C116.9,392.4,115.5,393.8,115.5,395.7L115.5,395.7L115.5,395.7z"/>
</g>
<g>
	<path fill="#00A4E7" d="M115.5,413.8c0,1.8,1.4,3.2,3.2,3.2l0,0c1.8,0,3.3-1.4,3.3-3.2l0,0c0-1.8-1.4-3.3-3.3-3.3l0,0
		C116.9,410.5,115.5,412,115.5,413.8L115.5,413.8L115.5,413.8z"/>
</g>
<linearGradient id="SVGID_1_" gradientUnits="userSpaceOnUse" x1="44.0017" y1="765.9314" x2="44.0017" y2="697.5" gradientTransform="matrix(1.1073 0 0 -1.1073 0 1203.9352)">
	<stop  offset="0" style="stop-color:#F26322"/>
	<stop  offset="1" style="stop-color:#D8461F"/>
</linearGradient>
<path fill="url(#SVGID_1_)" d="M97.4,410.7c0-0.6,0-10.6,0-18.2c-6.9-6.1-27.7-24.4-27.8-24.6c-0.8-0.9-1.2-1.8-1.2-2.7
	c0-4.4,9.7-8.3,22.8-9.3c-8.5-0.2-21-0.2-24.8,0.2c-13.1,1.6-26.7,7.6-32,10.5c-13.7,7.4-29.8,10.9-29.8,10.9s-0.8,2.9-1.1,7h62.2
	c0.6-2.5,2.9-4.5,5.6-4.5c3.2,0,5.8,2.5,5.8,5.8s-2.5,5.8-5.8,5.8c-2.8,0-5-1.9-5.6-4.5H3.3c0,2,0.1,4.5,0.1,6.3h26.9l9.3,9.3h26
	c0.6-2.5,2.9-4.5,5.6-4.5c3.2,0,5.8,2.5,5.8,5.8s-2.5,5.8-5.8,5.8c-2.8,0-5-1.9-5.5-4.4H38.6l-9.3-9.3H3l-3,2l0.2,3.7
	c0,0,0.7,6.4,4,10.5c4,4.9,21.3,5.8,21.3,5.8l0.6-0.1c1.2,8,8.4,14,17.1,14c7.5,0,13.5-4,15.8-10.4l37.6,0.8
	C97.6,418.8,97.4,414.7,97.4,410.7z"/>
<linearGradient id="SVGID_2_" gradientUnits="userSpaceOnUse" x1="133.25" y1="763.2" x2="133.25" y2="687" gradientTransform="matrix(1.1073 0 0 -1.1073 0 1203.9352)">
	<stop  offset="0" style="stop-color:#F8971D"/>
	<stop  offset="0.1993" style="stop-color:#F68C1F"/>
	<stop  offset="0.7259" style="stop-color:#F36F21"/>
	<stop  offset="1" style="stop-color:#F26322"/>
</linearGradient>
<path fill="url(#SVGID_2_)" d="M218.8,406.1L218.8,406.1H173v8.9h-48.6c-0.6,2.5-2.9,4.5-5.6,4.5c-3.2,0-5.8-2.5-5.8-5.8
	s2.5-5.8,5.8-5.8c2.8,0,5,1.9,5.6,4.5h46.2v-6.3h-10.9l-9.3-9.3h-26c-0.6,2.5-2.9,4.5-5.6,4.5c-3.2,0-5.8-2.5-5.8-5.8
	c0-3.2,2.5-5.8,5.8-5.8c2.8,0,5,1.9,5.5,4.4h27l9.3,9.3h56.6l-4.9-10.2c0,0-2.2-1.4-5.4-2.5c-3.2-1-7.9-2.2-14-3.1s-15.8-2-15.8-2
	s-13.6-1-27.2-12.1c-10.9-8.9-22.9-12.3-22.9-12.3l0,0c-5-1.6-13.7-2.7-23.8-2.7c-15.5,0-28,2.4-28,5.5s12.5,5.5,28,5.5
	c11.7,0,21.7-1.4,25.9-3.4c0.2,0.3,0.3,0.8,0.3,1.1c0,0.4-0.1,0.8-0.4,1.2l0,0l-27.2,23.6c0,7.5,0,17.6,0,18.2
	c-0.1,4.1-0.2,8.3,0.7,11.6c9.6,0.4,16.9,3,16.9,6.1c0,0.9-0.6,1.7-1.6,2.3h44.8c0,0,1.6,0,4,0c1.9,7.2,8.6,12.6,16.8,12.6
	c8,0,14.7-5.1,16.7-12.2l9.6,0.1c1.9-0.1,2.3,0.1,2.9-0.7c0.8-1.1,7.4-13,7.4-13s-0.2-10-0.3-10.6
	C219.7,406.4,218.8,406.1,218.8,406.1z"/>
</svg>
