<?xml version="1.0" encoding="utf-8"?>
<!-- Generator: Adobe Illustrator 18.0.0, SVG Export Plug-In . SVG Version: 6.00 Build 0)  -->
<!DOCTYPE svg PUBLIC "-//W3C//DTD SVG 1.1//EN" "http://www.w3.org/Graphics/SVG/1.1/DTD/svg11.dtd">
<svg version="1.1" id="Layer_1" xmlns="http://www.w3.org/2000/svg" xmlns:xlink="http://www.w3.org/1999/xlink" x="0px" y="0px"
	 viewBox="0 0 95.9 123.8" enable-background="new 0 0 95.9 123.8" xml:space="preserve">
<g>
	<path fill="#FFFFFF" d="M47.9,123.8C21.5,123.8,0,102.3,0,75.9s21.5-47.9,47.9-47.9s47.9,21.5,47.9,47.9S74.4,123.8,47.9,123.8z
		 M47.9,35.7c-22.1,0-40.1,18-40.1,40.1s18,40.1,40.1,40.1s40.1-18,40.1-40.1S70.1,35.7,47.9,35.7z"/>
	<path fill="#FFFFFF" d="M16.5,57.7c0,0,0,2.7,7.6,1.9c0,0,29.2-2.2,45.7,0.2c0,0,7.1,1.2,9.3-2c0,0,4.1,7.3,4.4,13.1h-1.9
		c0,0-1.7-3.7-5.9-1c0,0-12.1,8.8-2.5,19.7c0,0,2.9,2.7,7.1,1l-8.3,11.7h-3.7c0,0-16.8-9.7-41.6,0h-3.4c0,0-6.3-5.3-8.3-11.5
		c0,0,13.4,2,10.7-13.1c0,0-4.4-12.7-12.2-6.8h-1.5C11.9,70.8,13,60.6,16.5,57.7z"/>
	<circle fill="#FFFFFF" cx="26" cy="22.6" r="1.5"/>
	<circle fill="#FFFFFF" cx="38.4" cy="15.8" r="1.2"/>
	<circle fill="#FFFFFF" cx="68.8" cy="49.3" r="1.1"/>
	<circle fill="#FFFFFF" cx="45.1" cy="1.5" r="1.5"/>
	<circle fill="#FFFFFF" cx="18.1" cy="5.5" r="1.5"/>
	<circle fill="#FFFFFF" cx="80.5" cy="33.5" r="1.1"/>
	<circle fill="#FFFFFF" cx="80.9" cy="23" r="1.2"/>
	<circle fill="#FFFFFF" cx="47.9" cy="20.1" r="1.5"/>
	<circle fill="#FFFFFF" cx="67.3" cy="3.5" r="1.5"/>
	<circle fill="#FFFFFF" cx="68.8" cy="17" r="1.2"/>
	<circle fill="#FFFFFF" cx="70" cy="27.9" r="1.5"/>
	<circle fill="#FFFFFF" cx="21.2" cy="30.1" r="1.5"/>
	<circle fill="#FFFFFF" cx="17" cy="21.6" r="1.5"/>
	<circle fill="#FFFFFF" cx="25.5" cy="49.3" r="1.5"/>
	<circle fill="#FFFFFF" cx="27" cy="12.3" r="1.5"/>
	<circle fill="#FFFFFF" cx="54" cy="49.3" r="1.1"/>
	<circle fill="#FFFFFF" cx="46.3" cy="41.6" r="1.2"/>
	<circle fill="#FFFFFF" cx="36.7" cy="35" r="1.5"/>
	<circle fill="#FFFFFF" cx="39.4" cy="46" r="1.2"/>
	<circle fill="#FFFFFF" cx="58.4" cy="23.1" r="1.5"/>
	<circle fill="#FFFFFF" cx="12.9" cy="33.1" r="1.5"/>
	<circle fill="#FFFFFF" cx="54.4" cy="9.1" r="1.5"/>
	<circle fill="#FFFFFF" cx="34.9" cy="24.1" r="1.5"/>
	<circle fill="#FFFFFF" cx="33.5" cy="54.5" r="1.1"/>
	<circle fill="#FFFFFF" cx="59.5" cy="42.5" r="1.1"/>
	<circle fill="#FFFFFF" cx="45.5" cy="53.5" r="1.1"/>
	<circle fill="#FFFFFF" cx="61" cy="54.9" r="1.5"/>
</g>
</svg>
