<?xml version="1.0" encoding="utf-8"?>
<!-- Generator: Adobe Illustrator 18.0.0, SVG Export Plug-In . SVG Version: 6.00 Build 0)  -->
<!DOCTYPE svg PUBLIC "-//W3C//DTD SVG 1.1//EN" "http://www.w3.org/Graphics/SVG/1.1/DTD/svg11.dtd">
<svg version="1.1" id="Layer_1" xmlns="http://www.w3.org/2000/svg" xmlns:xlink="http://www.w3.org/1999/xlink" x="0px" y="0px"
	 viewBox="0 0 136.9 234.3" enable-background="new 0 0 136.9 234.3" xml:space="preserve">
<path fill="#FFFFFF" d="M59.8,78.5c9.3-1,18.4-2.9,24.1,6.7c12.5-3.9,22.6-2.2,26.7,7.5c4-0.2,7.9-0.7,11.8-0.6
	c8.6,0.1,14.4,5.9,14.5,14.6c0.1,7.6,0,15.3,0,23c0,19.8,0.1,39.7-0.1,59.5c-0.2,19.5-12.3,36.4-30.7,42.6
	c-4.7,1.6-9.9,2.2-14.9,2.4c-9.5,0.4-19,0-28.5,0.1c-20.5,0.4-36.1-8.7-48-24.9C4.6,195.6,0.3,179.8,0.2,162.7
	c-0.1-13.9,0-27.8,0-41.7c0-1.9-0.1-3.8-0.2-5.7c-0.2-2.4,0.7-3.5,3.2-3.4c7.6,0.1,15,0.5,20.9,6.2c0.3,0.3,0.8,0.4,1.9,0.8
	c0-2.9,0-5.4,0-8c0-12.5-0.1-24.9,0-37.4c0-2.2-0.6-3.4-2.5-4.5C10,60.9,3.3,45.4,6.4,29.8C9.3,15,21.5,3.1,36.8,0.5
	c17.1-2.9,34.3,6.5,40.8,22.5c6.7,16.6,1.2,35.4-13.7,45.1c-3.3,2.1-4.7,4.3-4.1,8C59.9,76.9,59.8,77.7,59.8,78.5z M11.6,124.2
	c-0.1,1.3-0.3,2.6-0.3,4c0,11.5,0,23,0,34.5c0,12.1,2.4,23.7,8.5,34.2C29.5,214,43.5,224,64,223.4c8.9-0.3,17.8,0,26.7-0.1
	c2.8,0,5.6-0.3,8.3-0.9c15.9-3.6,26.8-17.3,26.8-34c0.1-26,0-51.9,0-77.9c0-7.5,0-7.5-7.5-7.4c-3.5,0.1-4.3,1-4.4,4.5
	c-0.1,4.9,0,9.8-0.2,14.7c-0.1,4.1-2.9,6.5-7,6.4c-4.1-0.1-6.6-2.7-6.6-6.7c0-6.6-0.2-13.2,0-19.8c0.2-8.1-0.4-7.7-8.5-7.6
	c-2.2,0-3.4,1.4-3.4,3.5c0,7.7-0.1,15.3,0.1,23c0.1,4.6-2,7.3-6.6,7.7c-4.6,0.3-7.4-2.3-7.4-7.4c-0.1-8.4,0-16.8,0-25.2
	c0-7.2-0.1-7.2-7.2-7.2c-3.7,0-4.6,0.9-4.6,4.6c0,8.9,0.2,17.8,0,26.7c-0.1,2.4-0.9,5.2-2.3,7c-1.9,2.2-4.9,2.3-7.7,1
	c-2.8-1.3-3.9-3.6-3.9-6.8c0.1-25.5,0.1-51,0.1-76.5c0-4.5-2.2-7.3-5.9-7.3c-3.7,0-6,2.7-6,7.2c0,24.1-0.1,48.1-0.1,72.2
	c0,14,0.1,28,0,42c0,3.6-1.5,5.7-4.4,6.6c-5,1.6-9.2-1.3-9.3-6.5c-0.1-6.9,0.1-13.8-0.1-20.7C22.8,131.2,17.6,124.9,11.6,124.2z
	 M59.8,54.8c7.1-5.7,9.7-17,6.3-26.1c-3.8-10.1-13.6-16.4-24.6-15.9c-10.3,0.5-19.4,7.9-22.2,18C17,39.4,19.9,50.2,26,54.2
	c0-3.7,0-7.2,0-10.7c0.1-9.7,7.4-17,16.9-17c9.4,0,16.8,7.3,16.9,17C59.8,47.1,59.8,50.7,59.8,54.8z"/>
</svg>
