<?xml version="1.0" encoding="utf-8"?>
<!-- Generator: Adobe Illustrator 18.0.0, SVG Export Plug-In . SVG Version: 6.00 Build 0)  -->
<!DOCTYPE svg PUBLIC "-//W3C//DTD SVG 1.1//EN" "http://www.w3.org/Graphics/SVG/1.1/DTD/svg11.dtd">
<svg version="1.1" id="Layer_1" xmlns="http://www.w3.org/2000/svg" xmlns:xlink="http://www.w3.org/1999/xlink" x="0px" y="0px"
	 viewBox="0 89.9 612 612.1" enable-background="new 0 89.9 612 612.1" xml:space="preserve">
<path fill="#E1541B" d="M612,395.9c0.5,167.7-136.8,305.9-305.3,306.1C137.8,702.3-0.7,565.1,0,394.4C0.7,226.6,138,88.9,308.4,90
	C475,91,612.3,227.7,612,395.9z M561.5,478.5c0.6,0,1,0,1.6-0.1c7.4-21,11.3-42.8,12.4-65c3.9-74.7-18.2-140.6-67.5-197.1
	c-84-95.9-237.5-124.7-356.9-41.5C94.7,214.2,58.8,268.1,43,335c-7,29.5-9,59.4-5,91c2.4-2.2,3.8-3.3,5-4.6c4-4.3,7.8-8.7,12-12.8
	c19.7-18.9,43.5-28,70.4-28.2c56.8-0.4,113.4-0.3,170.2,0c9.5,0,19.1,1,28.5,2.8c13.7,2.6,26.2,8.4,37.7,17.1
	c-6.5,0.5-12.5,0.8-18.5,1.3c-26.1,2.2-48.3,13-67.6,30.2c-1.7,1.5-3.9,2.9-5.9,3.1c-19.3,1.7-35.4,9.5-49.1,23.3
	c-25.9,26.2-29.1,70.8-6.7,99.9c5.6,7.1,12.4,13.3,18.5,19.8c0.4-0.1,0.1,0.1-0.2,0.1c-5.1,0-10.2,0-15.3,0.1
	c-25.1,0.5-45,11.3-60.7,30.6c-7.3,9-5.1,9,3.5,14.7c2.2,1.4,3.9,1.1,5.5-1.1c2.1-3.1,4.3-6,6.9-8.7c14.2-15.2,32.1-21.4,52.4-21.4
	c36.6,0,73.3,0,109.8,0.8c28.5,0.6,54,21.4,61.7,49.2c2.8,9.9,2,7.9,10.3,5c0.2-0.1,0.3-0.2,0.5-0.2c4.8-1.1,5.2-4,3.9-8.3
	c-4.9-16.2-13.4-30-26.2-41.2c-14.3-12.4-30.8-19.1-49.8-19.3c-5,0-10.1,0-15.8,0c27.3-19.8,39.4-46,34-78.7
	c-5.5-33.1-26.2-53.2-58.2-63.1c1.2-1,1.9-1.8,2.8-2.3c17.3-11.5,36.3-18.3,57.4-18.3c36.8,0,73.5-0.4,110.4,0.2
	c10,0.2,20.4,1.9,30,4.9c25.5,8.2,44.7,24.9,59.4,47.2C556.9,471.3,559.1,474.9,561.5,478.5z M106.7,577.8c0.5-0.4,0.9-0.6,1.4-1
	c0.1-1,0.3-2.1,0.3-3.2c0-21.3,0-42.6,0-63.9c0-6.2-3.6-9.8-9.7-9.8s-9.6,3.6-9.6,9.8c-0.1,11.9,0.6,23.8-0.2,35.6
	c-0.6,8.5,1.9,15.3,7.7,21.1C100,570.2,103.3,574.1,106.7,577.8z M499.7,516.7c-7.5-0.2-12.7,5.8-11.3,12.5c0.8,4.1,2,8.1,3.2,12.1
	c3.2,11.2,6.6,22.4,9.9,33.7c0.7,2.4,1.8,5.6,4.8,2.3c4.1-4.4,7.9-9,11.5-13.8c1-1.4,1.6-3.9,1.1-5.6c-3.2-11.6-6.6-23.1-10.1-34.6
	C507.3,518.9,503.4,517.2,499.7,516.7z"/>
<path fill="#E1541B" d="M213.9,354.5c-44.9-0.2-82.4-36.9-82-83.2c0.4-46.8,38.4-83.5,85.5-82c43.5,1.4,80,36,79.9,82.9
	C297.1,318.9,259,354.9,213.9,354.5z"/>
<path fill="#E1541B" d="M490.7,310.1c0.9,43.6-37.4,80.8-80.4,80.4c-44.2-0.4-80.4-36.3-80.4-80.5c0-43.6,34.6-80.6,80.2-80.7
	C456.7,229.3,491.2,267.3,490.7,310.1z"/>
<path fill="#E1541B" d="M339.4,511.9c0.1,34-28.3,63.1-61.6,63.2c-35.6,0.1-64.1-27.9-64-63c0.1-33.2,25.8-62.7,62.7-62.9
	C312.4,449,339.4,478.2,339.4,511.9z"/>
</svg>
